<svg width="4096" height="4096" viewBox="0 0 4096 4096" fill="none" xmlns="http://www.w3.org/2000/svg">
<rect width="4096" height="4096" fill="#FF6200"/>
<path d="M340.161 2271.61L223.669 2364.48C205.089 2379.3 215.62 2409.24 239.381 2409.04C408.917 2407.62 675.887 2405.51 786 2405.16C911.572 2404.77 987.397 2331.71 1010.9 2293.49C1011.66 2292.26 1012.26 2290.98 1012.76 2289.63L1106.81 2038.7C1113.2 2021.63 1099.77 2003.67 1081.58 2004.99L1042.4 2007.84C1039.49 2008.05 1036.64 2007.78 1033.84 2006.98C921.356 1975.07 696.605 1911.46 665 1903.16C625 1892.66 613 1876.66 635.5 1831.16C653.5 1794.76 705.667 1787.33 729.5 1788.16L3792.79 1776.69C3798.12 1776.67 3803.31 1774.95 3807.59 1771.77L3868.32 1726.7C3887.66 1712.35 3878.05 1681.64 3853.97 1681.63C2803.07 1681.13 811.115 1680.49 688.5 1681.66C562.9 1682.86 505.167 1768.16 492 1810.66L417.128 2007.1C410.577 2024.28 424.202 2042.42 442.534 2040.92L465.617 2039.02C468.517 2038.78 471.436 2039.05 474.243 2039.82L836.5 2138.66C980.5 2171.66 853.5 2266.16 774.5 2266.16H355.737C350.075 2266.16 344.589 2268.08 340.161 2271.61Z" fill="white"/>
<path d="M1712 1834.16H1320.16C1293.97 1834.16 1285.41 1869.32 1308.67 1881.36L1381.66 1919.15C1384.85 1920.81 1388.34 1921.76 1391.93 1921.88C1410.66 1922.5 1456.61 1923.1 1529 1921.66C1630 1919.66 1599.5 1961.66 1582.5 2016.16C1568.9 2059.76 1524.5 2068.33 1504 2067.16L1180.89 2061.94C1170.44 2061.77 1160.98 2068.13 1157.19 2077.87L1069.67 2302.65C1061.93 2322.53 1081.04 2342.35 1101.19 2335.33L1238.51 2287.49C1245.48 2285.06 1251.02 2279.68 1253.64 2272.78L1291.27 2174.01C1295.01 2164.19 1304.44 2157.76 1314.95 2157.88C1369.62 2158.5 1473.35 2159.09 1560.5 2157.66C1652.73 2156.15 1704.6 2110.76 1721.84 2084.53C1723.7 2081.7 1724.7 2078.44 1725.52 2075.15C1728.91 2061.54 1741.22 2023.55 1772.5 1944.66C1809.3 1851.86 1747.5 1832.33 1712 1834.16Z" fill="white"/>
<path d="M1850.5 1898.16C1851.18 1896.11 1851.78 1894.11 1852.3 1892.15C1858.08 1870.46 1881.12 1832.87 1903.56 1832.68C1929.72 1832.46 1958.67 1832.74 1983 1834.16C2031 1836.96 2023.33 1881.66 2013.5 1903.66L1877.07 2268.42C1873.42 2278.19 1864.09 2284.66 1853.66 2284.66H1733.66C1715.91 2284.66 1703.8 2266.7 1710.48 2250.25C1759.92 2128.39 1839.97 1929.76 1850.5 1898.16Z" fill="white"/>
<path d="M2578.84 1909.59C2585.55 1897.93 2594.86 1879.28 2595.5 1864.66C2595.5 1835.86 2530.83 1830.33 2498.5 1831.16H2207C2118.2 1831.16 2076.33 1885.5 2066.5 1912.66C2048.5 1965.16 2002.5 2092.86 1962.5 2183.66C1922.5 2274.46 1976.17 2290.16 2008 2286.66C2107 2285.66 2317.9 2283.76 2369.5 2284.16C2417.51 2284.53 2449.04 2260.99 2461.12 2246.7C2462.77 2244.74 2463.91 2242.42 2464.7 2239.98L2470.66 2221.77C2475.98 2205.51 2463.77 2188.83 2446.66 2189L2222.5 2191.16C2110.9 2191.16 2141 2163.66 2159 2113.16C2177 2062.66 2197.5 2012.16 2197.5 2012.16C2216.77 1936.91 2251.63 1922.86 2266.51 1923.63C2268.86 1923.75 2271.2 1924.15 2273.56 1924.12L2558.97 1920.81C2567.14 1920.72 2574.77 1916.67 2578.84 1909.59Z" fill="white"/>
<path d="M2638 1920.66C2638.9 1918.25 2639.74 1915.89 2640.53 1913.58C2648.56 1889.95 2698.28 1832.66 2723.24 1832.66H3063.5C3115.5 1832.66 3128 1843.66 3127.5 1882.16C3127.1 1912.96 3091.67 1920.66 3074 1920.66H2825.56C2815.52 1920.66 2806.46 1926.67 2802.54 1935.91L2786 1974.93C2779.08 1991.28 2790.92 2009.43 2808.67 2009.68L3019.72 2012.64C3037.5 2012.89 3049.34 2031.1 3042.36 2047.45L3028.48 2079.98C3024.55 2089.19 3015.5 2095.16 3005.49 2095.16H2758.88C2748.43 2095.16 2739.09 2101.66 2735.44 2111.45L2718.38 2157.37C2712.35 2173.59 2724.22 2190.88 2741.51 2191.08L2927.98 2193.27C2952.06 2193.56 2961.86 2224.37 2942.37 2238.51L2888.07 2277.9C2883.8 2281 2878.66 2282.66 2873.39 2282.66H2538.56C2521.11 2282.66 2509.01 2265.29 2515.13 2248.95C2554.49 2143.84 2619.01 1971.53 2638 1920.66Z" fill="white"/>
<path d="M3722.19 1831.16L3193.63 1834.99C3183.67 1835.06 3178.04 1846.46 3184.05 1854.42C3185.64 1856.52 3186.5 1859.09 3186.5 1861.73V1881.08C3186.5 1884.43 3185.8 1887.75 3184.45 1890.82C3177.41 1906.75 3189.08 1924.66 3206.5 1924.66H3362.64C3386.34 1924.66 3396.74 1954.56 3378.16 1969.26L2871.84 2370.06C2853.26 2384.77 2863.66 2414.66 2887.36 2414.66H3759.31C3765.24 2414.66 3770.98 2412.55 3775.5 2408.71L3860.19 2336.71C3877.91 2321.64 3867.26 2292.66 3844 2292.66H3311.04C3287.71 2292.66 3277.09 2263.55 3294.94 2248.53L3738.47 1875.29C3756.38 1860.22 3745.6 1830.99 3722.19 1831.16Z" fill="white"/>
</svg>
