<svg width="4096" height="4096" viewBox="0 0 4096 4096" fill="none" xmlns="http://www.w3.org/2000/svg">
<rect width="4096" height="4096" fill="black"/>
<path d="M1033.16 2274.04L916.669 2366.91C898.089 2381.72 908.62 2411.66 932.381 2411.46C1101.92 2410.04 1368.89 2407.93 1479 2407.58C1604.57 2407.19 1680.4 2334.13 1703.9 2295.91C1704.66 2294.68 1705.26 2293.4 1705.76 2292.05L1799.81 2041.12C1806.2 2024.05 1792.77 2006.09 1774.58 2007.41L1735.4 2010.26C1732.49 2010.47 1729.64 2010.2 1726.84 2009.4C1614.36 1977.49 1389.61 1913.88 1358 1905.58C1318 1895.08 1306 1879.08 1328.5 1833.58C1346.5 1797.18 1398.67 1789.75 1422.5 1790.58L3097.74 1790.59C3103.1 1790.59 3108.33 1788.86 3112.64 1785.67L3173.32 1740.63C3192.66 1726.28 3182.35 1695.56 3158.27 1695.53C2171.9 1694.49 1503.99 1682.91 1381.5 1684.08C1255.9 1685.28 1198.17 1770.58 1185 1813.08L1110.13 2009.52C1103.58 2026.7 1117.2 2044.84 1135.53 2043.34L1158.62 2041.44C1161.52 2041.2 1164.44 2041.47 1167.24 2042.24L1529.5 2141.08C1673.5 2174.08 1546.5 2268.58 1467.5 2268.58H1048.74C1043.08 2268.58 1037.59 2270.51 1033.16 2274.04Z" fill="#FF6200"/>
<path d="M2405 1836.59H2013.16C1986.97 1836.59 1978.41 1871.75 2001.67 1883.79L2074.66 1921.58C2077.85 1923.24 2081.34 1924.19 2084.93 1924.3C2103.66 1924.92 2149.61 1925.52 2222 1924.09C2323 1922.09 2292.5 1964.09 2275.5 2018.59C2261.9 2062.19 2217.5 2070.76 2197 2069.59L1873.89 2064.37C1863.44 2064.2 1853.98 2070.56 1850.19 2080.3L1762.67 2305.08C1754.93 2324.96 1774.04 2344.78 1794.19 2337.76L1931.51 2289.92C1938.48 2287.49 1944.02 2282.11 1946.64 2275.21L1984.27 2176.44C1988.01 2166.62 1997.44 2160.19 2007.95 2160.31C2062.62 2160.93 2166.35 2161.52 2253.5 2160.09C2345.73 2158.58 2397.6 2113.19 2414.84 2086.96C2416.7 2084.13 2417.7 2080.86 2418.52 2077.57C2421.91 2063.97 2434.22 2025.98 2465.5 1947.09C2502.3 1854.29 2440.5 1834.76 2405 1836.59Z" fill="#FF6200"/>
<path d="M3046.69 1828.93L2518.13 1832.75C2508.17 1832.83 2502.54 1844.23 2508.55 1852.18C2510.14 1854.29 2511 1856.85 2511 1859.49V1878.84C2511 1882.2 2510.3 1885.51 2508.95 1888.58C2501.91 1904.52 2513.58 1922.43 2531 1922.43H2687.14C2710.84 1922.43 2721.24 1952.32 2702.66 1967.03L2196.34 2367.83C2177.76 2382.53 2188.16 2412.43 2211.86 2412.43H3083.81C3089.74 2412.43 3095.48 2410.32 3100 2406.47L3184.69 2334.47C3202.41 2319.41 3191.76 2290.43 3168.5 2290.43H2635.54C2612.21 2290.43 2601.59 2261.32 2619.44 2246.3L3062.97 1873.06C3080.88 1857.98 3070.1 1828.76 3046.69 1828.93Z" fill="#FF6200"/>
</svg>
